<svg width="225" height="225" viewBox="0 0 225 225" fill="none" xmlns="http://www.w3.org/2000/svg">
<path d="M112.5 0C50.3222 0 0 50.3161 0 112.5C0 174.678 50.3152 225 112.5 225C174.678 225 225 174.684 225 112.5C225 50.3218 174.684 0 112.5 0ZM153.034 124.988L100.171 155.533C95.7111 158.11 90.2123 158.115 85.7452 155.537C81.2812 152.961 78.5316 148.199 78.5316 143.046V81.9549C78.5316 76.801 81.2817 72.0391 85.7452 69.463C87.9759 68.1754 90.4654 67.5316 92.9549 67.5316C95.4466 67.5316 97.9387 68.1768 100.171 69.4661L153.035 100.011C157.495 102.588 160.242 107.348 160.242 112.5C160.242 117.651 157.494 122.411 153.034 124.988Z" fill="rgb(24 24 27)"/>
</svg>
